<?xml version="1.0" standalone="no"?>
<!DOCTYPE svg PUBLIC "-//W3C//DTD SVG 20010904//EN"
 "http://www.w3.org/TR/2001/REC-SVG-20010904/DTD/svg10.dtd">
<svg version="1.0" xmlns="http://www.w3.org/2000/svg"
 width="41.000000pt" height="49.000000pt" viewBox="0 0 41.000000 49.000000"
 preserveAspectRatio="xMidYMid meet">

<g transform="translate(0.000000,49.000000) scale(0.100000,-0.100000)"
fill="#000000" stroke="none">
<path d="M244 278 c3 -13 6 -35 6 -50 0 -31 7 -34 33 -14 18 14 17 16 -5 50
-26 40 -43 47 -34 14z"/>
<path d="M196 194 c-3 -9 -2 -23 4 -32 7 -14 9 -10 10 16 0 35 -5 41 -14 16z"/>
<path d="M100 181 c0 -18 18 -21 30 -6 10 13 9 15 -9 15 -11 0 -21 -4 -21 -9z"/>
<path d="M278 173 c-25 -6 -52 -53 -39 -66 8 -8 19 -3 40 17 17 16 34 25 41
21 9 -6 9 -2 1 14 -12 21 -14 22 -43 14z"/>
</g>
</svg>
